<?xml version="1.0" encoding="utf-8"?>
<!-- Generator: Adobe Illustrator 25.2.0, SVG Export Plug-In . SVG Version: 6.00 Build 0)  -->
<svg version="1.1" id="Capa_1" xmlns="http://www.w3.org/2000/svg" xmlns:xlink="http://www.w3.org/1999/xlink" x="0px" y="0px"
	 viewBox="0 0 785 589" style="enable-background:new 0 0 785 589;" xml:space="preserve">
<style type="text/css">
	.st0{fill:#FFFFFF;}
	.st1{fill:none;stroke:#FFFFFF;stroke-linecap:round;stroke-linejoin:round;}
	.st2{fill:#A0C6F4;}
	.st3{fill:#F9865F;}
	.st4{fill:#2A1E33;}
	.st5{fill:#3B3B5F;}
	.st6{fill:#071105;}
	.st7{fill:#FF8A66;}
	.st8{fill:none;stroke:#2A1E33;stroke-linecap:round;stroke-linejoin:round;}
	.st9{fill:#FF6D66;}
	.st10{fill:#FAD8B0;}
	.st11{fill:#121212;}
	.st12{fill:#FFF7DC;}
	.st13{fill:#FFE1C0;}
	.st14{fill:#FFFFFF;stroke:#FFFFFF;stroke-linecap:round;stroke-linejoin:round;}
	.st15{fill:#91BA83;}
	.st16{fill:#122B09;}
	.st17{fill:none;stroke:#FFFFFF;stroke-width:0.67;stroke-linecap:round;stroke-linejoin:round;}
	.st18{fill:url(#SVGID_1_);}
	.st19{fill:url(#SVGID_2_);}
	.st20{fill:url(#SVGID_3_);}
	.st21{fill:url(#SVGID_4_);}
	.st22{fill:none;stroke:#FF6D66;stroke-linecap:round;stroke-linejoin:round;}
	.st23{fill:none;stroke:#FAD8B0;stroke-miterlimit:10;}
	.st24{fill:none;stroke:#A0C6F4;stroke-linecap:round;stroke-linejoin:round;}
</style>
<path class="st0" d="M542.8,172.1c-54.2-50.9-117.6-64-134.4-66.7c11.3-30.5,28.8-75.9,33.1-82.6c2.8-0.4,5.6-0.5,8.5-0.5
	c12.3,0,38.7,2.6,76.9,19.8c55.2,24.8,69.8,52.8,72.7,59.6L542.8,172.1z"/>
<path d="M450,25.7c12.1,0,37.9,2.5,75.5,19.5c49.8,22.5,65.9,47.6,70.2,56.1l-53.2,66c-26.3-23.7-57-42-90.4-53.8
	c-12.7-4.6-25.8-8.1-39.1-10.6c12.5-33.6,26.1-68.2,30.6-76.9C445.1,25.8,447.3,25.7,450,25.7L450,25.7z M450,19
	c-3.4-0.1-6.8,0.2-10.1,0.7c-3.9,1.3-36,88.5-36,88.5s76.2,7.8,139.3,68.9l60.2-74.7c0,0-10-33.9-75.2-63.3
	C490,21.8,463.4,19,449.9,19L450,19z"/>
<path class="st1" d="M415,115c0,0,74.9,7.6,121.1,50"/>
<path class="st2" d="M479.7,111.3l28-54.4l28.7,56.8L479.7,111.3z"/>
<path class="st1" d="M485.1,110.5l28-54.4l28.7,56.8L485.1,110.5z"/>
<path class="st1" d="M458.9,15.7c0,0,84,7.6,136.2,69.7"/>
<path class="st0" d="M501.8,256.9c-4.6-3.3-7.6-5.7-7.6-5.7c1.3-1.7,21.5-23.3,33.2-40.6C527.4,210.5,503.7,258.2,501.8,256.9z"/>
<path class="st1" d="M215.4,99.7c2.3,3.8,3.2,2.3,9.7,1.7c6.5-0.6,15.8,4.3,19,12.3c3.2,8,2.3,9.3,0.5,10.3c-1.8,1-14.2,2.5-14.7,5"
	/>
<path class="st3" d="M383.9,507.4l-5.8-9.9L357.4,532l5.4,4.2L383.9,507.4z"/>
<path class="st3" d="M246.7,421.9c0,0-10.7-17.4-6.1-26l34.2,3.7L246.7,421.9z"/>
<path d="M246.7,421.9l2,4.7l-6.3,24.7c-0.4,1.5-0.4,3.1,0.1,4.6c0.5,1.5,1.4,2.8,2.5,3.9l31.3-46.3c1.4-2.1,2.1-4.7,1.8-7.3
	c-0.3-2.6-1.5-4.9-3.4-6.7l-7-6.5L246.7,421.9z"/>
<path class="st4" d="M229.9,129c9.8-0.2,22.2-0.9,19.7-8.4c-2.5-7.5-11.7-26.1-32.9-20.5c0,0-7.4,6.2,1.9,17.4
	C227.9,128.7,229.9,129,229.9,129z"/>
<path class="st5" d="M279.5,399.9c0,0-16.7-49.4-2.6-71.1c11.7-17.9,49.8,11.2,55,15.1l27.3-49.3c0,0-6.3-8.8-21.7-17.5
	s-79.3-34.6-109.3,12.8c-11.1,17.5-11.3,92.7,10,121.5L279.5,399.9z"/>
<path class="st1" d="M279.5,399.9c0,0-16.7-49.4-2.6-71.1c11.7-17.9,49.8,11.2,55,15.1"/>
<path class="st5" d="M359.2,294.6c-12.4,13.1-49.2,76.8-57.4,107.2c-11.1,40.7-6.9,74.5,53.9,140.7l29.4-42.9c0,0-20.7-31.4-16.7-61
	c5.6-42.9,36-84.4,51.4-110.8L359.2,294.6z"/>
<path class="st6" d="M363.8,300.1l48.9,38.4l14.6-22.2L363.8,300.1z"/>
<path class="st7" d="M644.6,259.7c7.6,1.6,13.4,4.6,17.4,8.7c4,4.2,2.2,6.4,0.7,7.6c-1.5,1.3-7.1-0.2-12-4.5
	C645.9,267.2,644.6,259.7,644.6,259.7z"/>
<path class="st3" d="M494.2,251.2c1.3-1.7,21.5-23.3,33.2-40.6c0,0,35.4,39.7,39.2,41c1.4,0.5,10,0.4,20.9,0.3
	c18.2-0.2,42.4-0.4,47.7,2.3c8.5,4.3,13.6,6.4,15.8,12.4c2.1,6,3,9.9-2.1,10.2c-6,0.4-9.8-7.3-9.8-7.3c-5.6,3-11.5,5.6-17.5,7.7
	c0,0-45.3,17.6-75.6,9.1C537.7,283.9,494.2,251.2,494.2,251.2z"/>
<path class="st3" d="M219.4,92.6c-3.9,1.5-6.3,3.3-4,7c2.3,3.8,3.2,2.3,9.7,1.7c6.5-0.6,15.8,4.3,19,12.3c3.2,8,2.3,9.3,0.5,10.3
	c-1.8,1-14.2,2.5-14.7,5c-0.5,2.5,5,9.9,16.6,9.4l2.7-0.5c0,0,24.2,23.7,27.7,27.2c3.5,3.5,29.2,21,43.5,24.5
	c10.8,2.7,32.6-0.8,45.7-3.3c6.4-1.3,10.7-2.3,10.7-2.3s-9.8-17.8-11.9-45.1c0,0-23.5,3.8-39.2,7.2c0,0-36.5-20.4-54.3-29.4
	c0,0-15.5-19-22.8-21.5C241.5,92.6,224.7,90.6,219.4,92.6z"/>
<path class="st0" d="M366.1,186.2c6.4-1.3,10.7-2.3,10.7-2.3s-11.9-15.1-13.9-42.3c0,0-5.4,5.8-3.7,21.3
	C361.3,182.4,366.1,186.2,366.1,186.2z"/>
<path d="M362.4,138.5c0,0,0.3,33.4,9.3,47.3l3.2-1.3c0,0-42.1,49.3-55.7,81.5c-2.2,5.3,87.3,62.6,100.6,61.8
	c0,0,43.6-66.7,58.5-86.5l16.1,12.5c0,0,31.4-31.9,33.1-43.2c0,0-30.4-37-55.2-47.9c-24.8-10.9-47.2-29.4-73.9-28.8
	C375.3,134.2,362.4,138.5,362.4,138.5z"/>
<path class="st0" d="M494.2,253.8l-16-12.5l2.6-7L494.2,253.8z"/>
<path class="st3" d="M518.6,121.8c-2.8,8.8-10.9,34.1-20,37.2c-9,3.1-18.4-0.8-18.4-0.8l-9.6,4.9c-1.1,3.2-8.7,6-18.5,6.4
	c-7.3,0.3-11.7-9.1-9.5-15.8c1-3.1,4.7-18.4,4.7-18.4s7.8-28.7,15-34.7c7.3-5.9,13.9-11.8,33.1-4.1
	C524.6,108.4,518.6,121.8,518.6,121.8z"/>
<path class="st4" d="M460.5,123.1c-1.3,5.4-6.9,16.1-10.5,14.2c-3.7-1.9-4.9-6.9-2.4-16.3c2.6-9.5,4.7-30.9,12-34.8
	c7.3-3.9,10.5,0.6,10.5,0.6s-3.2-15.7,6.2-17.8c0,0,3.2-1.5,1.9,9.2c1.2-3,3.5-5.4,6.2-7c2.8-1.6,6-2.1,9.2-1.6
	c11.7,1.3,15.9,17.8,15.9,17.8c0.3-1.4,1.1-2.6,2.3-3.4c1.1-0.8,2.5-1.2,3.9-1.1c5.4,0,13.5,8,11.6,16.7c0,0,13.7-4.3,21,6.7
	c7.3,11,6.4,23-11.2,27.7c-18.4,4.9-18.2-16.5-21-19.3c-2.8-2.8-5.8-6-16.1-2.1c-10.3,3.9-21-7.5-21-7.5s-1.7,13.7-3.4,15.1
	c-1.8,1.3-5.1,3-4.3-3.4c0.9-6.4,1.9-5.8,1.3-7.5s-3.5-7.2-9.6-2.4C456.2,112.1,460.5,123.1,460.5,123.1z"/>
<path class="st8" d="M463.4,125.5c-4.1-3.3-6.9-9.5-3.3-15.6c3.6-6.1,9.5-6.9,11.3-4.6c1.8,2.3,2.5,6.2,0.8,10.8"/>
<path d="M362.9,536.2l2,4.7l-6.3,24.7c-0.4,1.5-0.4,3.1,0.1,4.6c0.5,1.5,1.4,2.8,2.5,3.9l31.2-46.3c1.4-2.1,2.1-4.7,1.8-7.3
	c-0.3-2.6-1.5-4.9-3.4-6.7l-7-6.5L362.9,536.2z"/>
<path class="st8" d="M470.2,86.8c0,0-2.4-7.8-9.6-9.8"/>
<path class="st1" d="M318.1,263.7l86.6-121.1"/>
<path class="st1" d="M440.4,151c-3.1,4.1-4.5,21.6,9.8,22.7c8.2,0.8,16.4-1,23.5-5.2"/>
<path class="st1" d="M248.7,95.1c0,0,9.9,13.1,11.5,17.8"/>
<path class="st1" d="M619.3,271c0,0,6.7,5.4,19.8-1.7c4.8-2.6,1.4-8.6-4.7-7.1c-6.1,1.5-13.2-0.8-13.2-0.8"/>
<path class="st1" d="M646.9,260.5c0,0,6.3,7.4,6.2,11.8"/>
<path class="st1" d="M553.5,259.7c0,0,5.7-7.7,13.1-8.2"/>
<path class="st1" d="M311.7,158.5c0,0,3.3-10.4,14.1-12.4"/>
<path class="st1" d="M340.7,317l-12.8,24.5c0,0-42.2,71.5-27.9,117.7"/>
<path class="st1" d="M378.1,399.1l41.5-71.3c0,0,54.4-79.1,60-90.1l19.2-35.6"/>
<path class="st1" d="M323.9,271.3c0,0,73.9,53.9,95.7,56.5"/>
<path class="st1" d="M362.4,138.5c0,0,0,33.8,9,47.7"/>
<path class="st1" d="M525,205.2c-2.3,13.9-33.1,43.2-33.1,43.2"/>
<path class="st0" d="M295,378.9c2.4,0,4.4-2,4.4-4.4c0-2.4-2-4.4-4.4-4.4c-2.4,0-4.4,2-4.4,4.4C290.6,376.9,292.6,378.9,295,378.9z"
	/>
<path class="st1" d="M706.4,468.9l-2.4-16.8l14.3,9.5l-7.5,1.6L706.4,468.9z"/>
<path class="st1" d="M232,182.1c-27.1-24-71.9,35.8,92,225.9c94.6,109.7,168.9,119.5,178.9,81.4c18.1-68.5-47.1-85.8-22.9-58.9
	c35.3,39,135.6,47.2,210.4,10.9c73.8-35.9,28.4-91.7,23.8-94.9"/>
<path class="st0" d="M691.6,445.3c2.4,0,4.4-2,4.4-4.4c0-2.4-2-4.4-4.4-4.4c-2.4,0-4.4,2-4.4,4.4
	C687.2,443.3,689.2,445.3,691.6,445.3z"/>
<path class="st1" d="M627.8,476.8l130-73.4"/>
<path class="st0" d="M234.7,190c2.4,0,4.4-2,4.4-4.4s-2-4.4-4.4-4.4c-2.4,0-4.4,2-4.4,4.4S232.2,190,234.7,190z"/>
<path class="st9" d="M346.5,104.4c5.2,0,9.4-4.2,9.4-9.4c0-5.2-4.2-9.4-9.4-9.4c-5.2,0-9.4,4.2-9.4,9.4
	C337.1,100.2,341.3,104.4,346.5,104.4z"/>
<path class="st2" d="M175.8,23.1c-0.8,0-1.6,0.2-2.3,0.7c-0.7,0.5-1.2,1.1-1.5,1.9c-0.3,0.8-0.4,1.6-0.2,2.4
	c0.2,0.8,0.6,1.5,1.1,2.1c0.6,0.6,1.3,1,2.1,1.1c0.8,0.2,1.6,0.1,2.4-0.2c0.8-0.3,1.4-0.8,1.9-1.5c0.5-0.7,0.7-1.5,0.7-2.3
	c0-1.1-0.4-2.2-1.2-2.9C177.9,23.5,176.9,23.1,175.8,23.1z"/>
<path class="st10" d="M729.9,537.5c2.3,0,4.1-1.9,4.1-4.1c0-2.3-1.8-4.1-4.1-4.1s-4.1,1.9-4.1,4.1
	C725.7,535.7,727.6,537.5,729.9,537.5z"/>
<path class="st4" d="M656,346.3l-44.5-20.9c-0.8-0.4-1.4-1-1.9-1.7c-0.5-0.7-0.7-1.6-0.7-2.5c0-0.9,0.3-1.7,0.7-2.5
	c0.5-0.7,1.2-1.3,1.9-1.7l82.7-36.4c0.6-0.3,1.2-0.4,1.8-0.4s1.3,0.1,1.8,0.4l56.8,24.4L656,346.3z"/>
<path class="st11" d="M653.3,277.7c0.1,18.4,2.7,68.7,2.7,68.7l98.8-41.3l-2.2-69.9c0-1-0.3-2-0.8-2.8c-0.5-0.9-1.2-1.6-2-2.1
	s-1.8-0.8-2.8-0.9c-1-0.1-2,0.1-2.9,0.5l-85.1,38.9c-1.7,0.8-3.2,2.1-4.2,3.7C653.8,273.9,653.3,275.8,653.3,277.7z"/>
<path class="st1" d="M656,346.3l98.8-41.3l-2.2-69.9c0,0-0.7-7.6-8.5-5.3"/>
<path class="st1" d="M703.8,296.1l6.7-15.8"/>
<path class="st1" d="M710.5,296.1l6.7-15.8"/>
<path class="st9" d="M193.6,468.4c2.3,0,4.1-1.9,4.1-4.1c0-2.3-1.8-4.1-4.1-4.1c-2.3,0-4.1,1.9-4.1,4.1
	C189.5,466.5,191.3,468.4,193.6,468.4z"/>
<path class="st9" d="M542.3,490.6c3.2,0,5.8-2.6,5.8-5.8c0-3.2-2.6-5.8-5.8-5.8c-3.2,0-5.8,2.6-5.8,5.8
	C536.5,488,539.1,490.6,542.3,490.6z"/>
<path class="st12" d="M236.5,525.7c16.4,7.5,34.2,11.4,52.2,11.2c0.3,0,0.7,0.1,1,0.2c0.3,0.1,0.6,0.3,0.8,0.6
	c0.2,0.3,0.4,0.5,0.5,0.9c0.1,0.3,0.1,0.7,0.1,1l-3.6,28.7c-0.1,0.5-0.3,1-0.7,1.3c-0.4,0.4-0.8,0.6-1.3,0.7
	c-7.3,1.4-36.8,5.4-58.9-13.4c-0.3-0.3-0.6-0.7-0.7-1.1c-0.1-0.4-0.1-0.9,0-1.3l7.3-27.3c0.1-0.3,0.3-0.6,0.5-0.9
	c0.2-0.3,0.5-0.5,0.8-0.6c0.3-0.1,0.7-0.2,1-0.2C235.8,525.5,236.2,525.5,236.5,525.7z"/>
<path class="st1" d="M239.1,534.1c0,0,12.7,17.9,17.3,20.5c4.5,2.6,29.1-12.1,29.1-12.1"/>
<path class="st1" d="M268.4,552.1l13.4,13.8"/>
<path class="st1" d="M249.8,549.5l-15.7,4.3"/>
<path class="st13" d="M646.5,186.4h-15v15h15V186.4z"/>
<path class="st2" d="M633.6,388.5l4.4,7.7l4.4,7.7h-8.9h-8.9l4.4-7.7L633.6,388.5z"/>
<path class="st1" d="M274,46.8l1.2-35c-0.1-3.3,1.2-4.3,3.2-4.8c9.5-2.1,38.5-8.5,69.8,0.8c4.1,1.2,3.9,3.3,3.9,5.3l-1.1,33.4
	c-0.1,0.6-0.3,1.2-0.6,1.8c-0.3,0.5-0.8,1-1.3,1.4c-0.5,0.4-1.1,0.6-1.7,0.7c-0.6,0.1-1.3,0.1-1.9,0c-11.4-1.4-22.8-1.9-34.3-1.7
	c-11,0-22,0.8-32.9,2.7C275.1,51.8,273.9,49.5,274,46.8z"/>
<path class="st1" d="M284.6,41.7l18.3-21.4l20.2,20C316.1,37.9,284.6,41.7,284.6,41.7z"/>
<path class="st1" d="M314,30.1l14.8-11.9l12.5,8.9l0.5,13.9l-18.7-0.9"/>
<path class="st1" d="M292.5,18.6c0.2-1.7-1.3-3.2-3.3-3.4c-2-0.2-3.7,1-3.9,2.7s1.3,3.2,3.3,3.4C290.6,21.5,292.3,20.3,292.5,18.6z"
	/>
<path class="st1" d="M627.5,501.8l12.3,22.7c1.3,2,0.8,3.2-0.3,4.2c-5.2,4.9-21.2,19.7-44.7,25.5c-3,0.8-3.7-0.7-4.4-1.9l-11.7-21.6
	c-0.2-0.4-0.3-0.9-0.3-1.4c0-0.5,0.1-0.9,0.3-1.3c0.2-0.4,0.5-0.8,0.8-1.1c0.3-0.3,0.8-0.5,1.2-0.7c7.7-3.4,15.2-7.3,22.4-11.7
	c7.1-4,13.8-8.7,20.1-13.8C624.9,498.9,626.5,500,627.5,501.8z"/>
<path class="st1" d="M622.6,509l-3.7,20.4l-20.3-5.2C604,523.1,622.6,509,622.6,509z"/>
<path class="st1" d="M608.2,527.2l-5,13l-11.2-1l-5.5-8.7l12.2-6.4"/>
<path class="st1" d="M629.4,527.6c1.3-0.6,2-2,1.5-3.1c-0.5-1.1-2-1.5-3.3-0.9c-1.3,0.6-2,2-1.5,3.1
	C626.6,527.8,628.1,528.2,629.4,527.6z"/>
<path class="st14" d="M567.8,114.6l49.8,38.2c0.3,0.2,0.6,0.3,0.9,0.4c0.3,0.1,0.6,0.1,1,0.1c0.3,0,0.6-0.2,0.9-0.3
	c0.3-0.2,0.5-0.4,0.7-0.7l7.5-10.2c0.4-0.5,0.5-1.1,0.4-1.8c-0.1-0.6-0.4-1.2-0.9-1.6L579,99.4c-0.3-0.2-0.6-0.4-0.9-0.4
	c-0.3-0.1-0.7-0.1-1-0.1c-0.3,0-0.6,0.2-0.9,0.3c-0.3,0.2-0.5,0.4-0.7,0.7l-8.2,11.4c-0.4,0.5-0.5,1.2-0.4,1.8
	C566.9,113.7,567.3,114.2,567.8,114.6z"/>
<path class="st9" d="M571.5,112.9l12.1,8.5l7.1-8.5l-12.1-10.1L571.5,112.9z"/>
<path class="st10" d="M588.1,124.7l12.1,9.6l6.5-8l-12.2-9.9L588.1,124.7z"/>
<path class="st2" d="M604.2,138l12.1,8.5l5.8-7.4l-11.4-9.6L604.2,138z"/>
<path class="st14" d="M667.2,61.2l11.4,95.5c0.1,0.5,0.2,1,0.4,1.4c0.2,0.4,0.6,0.8,1,1.1c0.4,0.3,0.9,0.5,1.3,0.7
	c0.5,0.1,1,0.2,1.5,0.1l19.2-2.6c1-0.1,1.8-0.6,2.4-1.4c0.6-0.8,0.9-1.7,0.8-2.7l-9.3-96c-0.1-0.5-0.2-1-0.5-1.4
	c-0.2-0.4-0.6-0.8-1-1.2c-0.4-0.3-0.9-0.5-1.4-0.7c-0.5-0.1-1-0.2-1.5-0.1L670.4,57c-1,0.1-1.9,0.7-2.5,1.4
	C667.3,59.3,667,60.3,667.2,61.2z"/>
<path class="st9" d="M673,63.5l3.6,22.3l17-1.3l-1.9-24.1L673,63.5z"/>
<path class="st15" d="M677.8,94.3l2.4,23.6l15.7-1.4l-2.2-23.9L677.8,94.3z"/>
<path class="st10" d="M680.5,126.3l3.6,22.3l14.3-1.6l-1.7-22.8L680.5,126.3z"/>
<path class="st14" d="M642.4,81.6l31.4,92.6c0.1,0.4,0.3,0.7,0.6,1c0.3,0.3,0.6,0.5,0.9,0.7c0.4,0.2,0.7,0.3,1.1,0.3
	c0.4,0,0.8,0,1.2-0.2l19.7-7.1c0.7-0.3,1.3-0.8,1.7-1.5c0.3-0.7,0.4-1.5,0.2-2.2l-29.5-93.5c-0.1-0.4-0.3-0.7-0.6-1.1
	c-0.3-0.3-0.6-0.6-1-0.7c-0.4-0.2-0.8-0.3-1.2-0.3c-0.4,0-0.8,0-1.2,0.2l-21.6,8c-0.7,0.3-1.3,0.8-1.7,1.5
	C642.2,80,642.1,80.8,642.4,81.6z"/>
<path class="st2" d="M648.8,83.3l8.2,21.1l16.3-4.8l-6.8-23.2L648.8,83.3z"/>
<path class="st3" d="M659.9,112.5l7.2,22.6l15-4.7l-7.1-23L659.9,112.5z"/>
<path class="st10" d="M669.2,143.2l8.2,21.1l13.6-4.5l-6.4-22L669.2,143.2z"/>
<path class="st16" d="M405.5,198.5H246.7c-5.1,0-9.2,4.1-9.2,9.2v21.5c0,5.1,4.1,9.2,9.2,9.2h158.8c5.1,0,9.2-4.1,9.2-9.2v-21.5
	C414.6,202.6,410.5,198.5,405.5,198.5z"/>
<path class="st0" d="M346,210.2h-86.5c-1.7,0-3,1.4-3,3c0,1.7,1.4,3,3,3H346c1.7,0,3-1.4,3-3C349,211.6,347.7,210.2,346,210.2z"/>
<path class="st1" d="M257.3,224.1h147.1"/>
<path class="st15" d="M182,123.5l2.5,2.7c0.5,0.6,0.8,1.3,0.7,2c0,0.8-0.4,1.5-0.9,2l-4.1,3.8c-0.6,0.5-1.3,0.8-2,0.7
	c-0.8,0-1.5-0.4-2-0.9l-2.5-2.7L182,123.5z"/>
<path class="st1" d="M159.5,118.1l11.8,12.9c0.6,0.7,1.6,0.7,2.3,0.1l8.2-7.5c0.7-0.6,0.7-1.6,0.1-2.3L170,108.4
	c-0.6-0.7-1.6-0.7-2.3-0.1l-8.2,7.5C158.9,116.4,158.9,117.4,159.5,118.1z"/>
<path class="st9" d="M147.1,176.9h-14.8v13.6h14.8V176.9z"/>
<path class="st1" d="M132.3,168.2v8.7h-8.9"/>
<path class="st10" d="M635.8,23.8h-14.8v13.6h14.8V23.8z"/>
<path class="st1" d="M620.9,15v8.7h-8.9"/>
<path class="st1" d="M219.5,107.6C65.7,43.8-52.6,166.7,237.2,355c22.8,14.8,57.8,20.1,57.8,20.1"/>
<path class="st0" d="M78.1,116.3c2.4,0,4.4-2,4.4-4.4c0-2.4-2-4.4-4.4-4.4c-2.4,0-4.4,2-4.4,4.4C73.7,114.3,75.7,116.3,78.1,116.3z"
	/>
<path class="st1" d="M50.2,87.8l4.8-4.6l11,6.3l5.6,17.1l-16.9-7.1L50.2,87.8z"/>
<path class="st1" d="M55,83.2l-4.8,4.6l-2.7-3.3l4.6-4.4L55,83.2z"/>
<path class="st1" d="M71.6,106.6l-11-12.1"/>
<path class="st14" d="M98.2,414.1l11.9,61.7c0.1,0.3,0.2,0.6,0.4,0.9c0.2,0.3,0.4,0.5,0.7,0.7c0.3,0.2,0.6,0.3,0.9,0.4
	c0.3,0.1,0.7,0.1,1,0l12.4-2.6c0.6-0.1,1.2-0.5,1.5-1c0.4-0.5,0.5-1.2,0.4-1.8l-10.6-62.1c-0.1-0.3-0.2-0.6-0.4-0.9
	c-0.2-0.3-0.4-0.5-0.7-0.7c-0.3-0.2-0.6-0.3-0.9-0.4c-0.3-0.1-0.7-0.1-1,0l-13.7,3c-0.3,0.1-0.6,0.2-0.9,0.4
	c-0.3,0.2-0.5,0.4-0.7,0.7c-0.2,0.3-0.3,0.6-0.4,0.9C98.1,413.4,98.1,413.8,98.2,414.1z"/>
<path class="st9" d="M102.1,415.2l3.4,14.4l11-1.6l-2.3-15.6L102.1,415.2z"/>
<path class="st10" d="M106.7,435.1l2.7,15.2l10.1-1.7l-2.6-15.5L106.7,435.1z"/>
<path class="st2" d="M110,455.8l3.4,14.4l9.2-1.7l-2.2-14.8L110,455.8z"/>
<path class="st1" d="M440.5,568.7l50.5-13.5l1.9,5.5l-51.1,13.3L440.5,568.7z"/>
<path class="st1" d="M433.4,561.6l1.5,4.6"/>
<path class="st1" d="M432,564.6l4.3-1.5"/>
<path class="st1" d="M431,579.1l2.7,8.7"/>
<path class="st1" d="M428.7,584.6l7.6-2.4"/>
<path class="st1" d="M419.5,564.8l3.6,11.5"/>
<path class="st1" d="M415.9,572l10.6-3.4"/>
<path class="st17" d="M72.2,19.1l-32-14.5L41.5,1l32.2,14.8L72.2,19.1z"/>
<path class="st17" d="M72.8,25.8l1.2-3"/>
<path class="st17" d="M74.8,24.8L72,23.8"/>
<path class="st17" d="M81.5,17.7l2.3-5.7"/>
<path class="st17" d="M85.1,15.8l-4.9-2"/>
<path class="st17" d="M81.5,30l3-7.5"/>
<path class="st17" d="M86.3,27.8l-7-2.8"/>
<linearGradient id="SVGID_1_" gradientUnits="userSpaceOnUse" x1="150.2314" y1="336.3143" x2="229.3414" y2="336.0413" gradientTransform="matrix(1 0 0 -1 0 590)">
	<stop  offset="0" style="stop-color:#000000"/>
	<stop  offset="1" style="stop-color:#042A00"/>
</linearGradient>
<path class="st18" d="M191.6,289.5c-22.5-16.2-44.7-41.5-35-67.4c0,0,15.5-10.4,40.1,2.6l24.6,13L191.6,289.5z"/>
<path class="st0" d="M181.4,397.7c-10.1-4.8-53.4-27.4-61.1-65.9c-6.7-33.3,18.8-78.2,31.5-98.1c-0.8,26.3,25.6,48.7,38.3,57.8
	c10.8,8,22.8,14.3,35.5,18.8L181.4,397.7z"/>
<linearGradient id="SVGID_2_" gradientUnits="userSpaceOnUse" x1="109.8549" y1="278.6826" x2="242.4909" y2="278.3766" gradientTransform="matrix(1 0 0 -1 0 590)">
	<stop  offset="0" style="stop-color:#000000"/>
	<stop  offset="1" style="stop-color:#042A00"/>
</linearGradient>
<path class="st19" d="M149.9,241.5c2.8,17.5,16.1,35.7,38.8,52c10.2,7.6,21.5,13.7,33.4,18.1l-41.8,82.7
	c-12.8-6.4-50.5-27.9-57.5-63.1C117,302,136.8,263.2,149.9,241.5L149.9,241.5z M156.7,222c0,0-47.9,64.8-38.8,110.2
	c9.1,45.4,64.7,68.7,64.7,68.7l46.6-92.1c-14.6-5.3-24-9.7-37.5-19.4c-22.5-16.2-44.7-41.5-35-67.4V222z"/>
<path class="st1" d="M144.1,259.7c1.4,8.4,4.7,16.4,9.7,23.4c5,6.9,11.5,12.6,19.1,16.6"/>
<path class="st1" d="M186.8,309l26,13.9"/>
<path class="st1" d="M147.8,296.9c0,0,8.4,18.6,35.3,30.7"/>
<path class="st1" d="M126.4,299.7c0,0,0.9,19.5,13.9,26.1"/>
<path class="st1" d="M156.2,231.8c0,0-2.4,25.1,35.5,57.7"/>
<path class="st1" d="M170.1,236.5c0,0,12.1-0.9,29.7,12.1"/>
<path class="st1" d="M113.2,316.6c-0.8,12.4,0.8,57.5,66,86.3"/>
<linearGradient id="SVGID_3_" gradientUnits="userSpaceOnUse" x1="497.9399" y1="255.2192" x2="576.7538" y2="254.9962" gradientTransform="matrix(1 0 0 -1 0 590)">
	<stop  offset="0" style="stop-color:#000000"/>
	<stop  offset="1" style="stop-color:#042A00"/>
</linearGradient>
<path class="st20" d="M529.7,291.5L502,347c0,0,18.8,6.9,4.1,28.5c0,0,34.7,14.4,57.4-23C586.2,315.1,529.7,291.5,529.7,291.5z"/>
<path class="st0" d="M466.4,461.1c-14,0-28.8-5.7-43.9-17l51.7-85.9l30.8,19.4l0.2,0.1c5.4,2,11.1,3,16.8,2.9
	c9.7,0.1,19.2-2.9,27.1-8.6l-37.8,64.9C511.2,437.1,494.9,461.2,466.4,461.1L466.4,461.1z"/>
<linearGradient id="SVGID_4_" gradientUnits="userSpaceOnUse" x1="410.3964" y1="182.4025" x2="580.5254" y2="181.5925" gradientTransform="matrix(1 0 0 -1 0 590)">
	<stop  offset="0" style="stop-color:#000000"/>
	<stop  offset="1" style="stop-color:#042A00"/>
</linearGradient>
<path class="st21" d="M475,361.8l28.4,17.9l0.4,0.2l0.4,0.2c5.7,2.1,11.7,3.2,17.8,3.1c7,0,13.9-1.4,20.2-4.3l-33,56.6
	c-1.1,1.6-16.4,23.1-42.8,23.1c-12.9,0-26.5-5.1-40.6-15.2L475,361.8z M563.5,352.4c-12.8,21.1-29.5,25.7-41.5,25.7
	c-5.4,0-10.8-0.9-15.9-2.7l-32.8-20.6l-54.2,90c18.1,14,33.9,19,47.2,19c30.3,0,47.1-25.5,47.1-25.5L563.5,352.4L563.5,352.4z"/>
<path class="st1" d="M502,347c0,0,20.6,7.3,4.1,28.5"/>
<path class="st1" d="M472.7,352.8c0,0,28.1,25.8,43.7,25.6c15.5-0.2,33.8-3.9,44.6-22.5"/>
<path class="st1" d="M476.2,386.2c0,0,19.3,17.1,40.8,11.6"/>
<path class="st1" d="M496.4,411.8c0,0,10.1,7.6,24.3,0.4"/>
<path class="st1" d="M449.9,422.4c0,0,23.4,23.3,60.1,7.9"/>
<path class="st1" d="M462.6,399.7c0,0,9.5,6.8,15.5,9"/>
<path class="st1" d="M534.4,307.6c0,0,21.3,7,23.9,35.2"/>
<path class="st1" d="M545.1,342.4c0,0,9.8,15.2-6.8,30.4"/>
<path class="st1" d="M421.1,440.6c0,0,53.5,67.1,92.4-11.4"/>
<path class="st22" d="M34.7,274.1h12.5"/>
<path class="st22" d="M729.9,123.8h12.5"/>
<path class="st23" d="M395.2,38.1h12.5"/>
<path class="st23" d="M753.7,188.6l12.3,2.2"/>
<path class="st24" d="M263.5,500.5H276"/>
<path class="st15" d="M780.6,348.8c2.3,0,4.1-1.9,4.1-4.1c0-2.3-1.8-4.1-4.1-4.1s-4.1,1.9-4.1,4.1
	C776.5,347,778.3,348.8,780.6,348.8z"/>
<path class="st15" d="M4.1,150.2c2.3,0,4.1-1.9,4.1-4.1c0-2.3-1.8-4.1-4.1-4.1S0,143.8,0,146C0,148.3,1.8,150.2,4.1,150.2z"/>
</svg>
